<svg    xmlns="http://www.w3.org/2000/svg"    x="0px"    y="0px"    height="30"  viewBox="0 0 50 50">                  <path                    d="M 48 0 C 46.894531 0 46 0.894531 46 2 C 46 2.171875 46.019531 2.339844 46.0625 2.5 L 2.5 46.0625 C 2.339844 46.019531 2.171875 46 2 46 C 0.894531 46 0 46.894531 0 48 C 0 49.105469 0.894531 50 2 50 C 2.738281 50 3.371094 49.597656 3.71875 49 L 46.28125 49 C 46.628906 49.597656 47.261719 50 48 50 C 49.105469 50 50 49.105469 50 48 C 50 47.261719 49.597656 46.628906 49 46.28125 L 49 3.71875 C 49.597656 3.371094 50 2.738281 50 2 C 50 0.894531 49.105469 0 48 0 Z M 47 4.4375 L 47 37 L 37 37 L 37 47 L 15.9375 47 C 15.695313 43.90625 14.472656 41.101563 12.53125 38.90625 Z M 39 39 L 47 39 L 47 46.28125 C 46.699219 46.457031 46.457031 46.699219 46.28125 47 L 39 47 Z M 11.09375 40.34375 C 12.675781 42.164063 13.699219 44.460938 13.9375 47 L 4.4375 47 Z"                  ></path>                </svg>