<svg                  xmlns="http://www.w3.org/2000/svg"                  x="0px"                  y="0px"                  height="30"                  viewBox="0 0 30 30"                >                  <path                    d="M22.047,3c-6.277,0-6.98,7.011-7.347,9h-3.268l-0.417,2h3.339c-1.855,11.024-2.65,11.781-3.565,11.781 c-0.83-2.323-1.434-3.066-2.692-3.066c-1.764,0-2.122,1.454-2.122,2.005C5.975,25.958,7,27,9,27c7.403,0,7.993-6.073,9.153-13h3.416 l0.417-2h-3.528c0.371-2.876,0.769-7.035,1.862-7.781c0.181,0.48,0.848,3.066,2.696,3.066c1.986,0,2.152-1.852,2.152-2.07 C25.166,4.551,24.792,3,22.047,3z"                  ></path>                </svg>